<?xml version="1.0" standalone="no"?>
<!DOCTYPE svg PUBLIC "-//W3C//DTD SVG 20010904//EN"
 "http://www.w3.org/TR/2001/REC-SVG-20010904/DTD/svg10.dtd">
<svg version="1.0" xmlns="http://www.w3.org/2000/svg"
 width="512.000000pt" height="512.000000pt" viewBox="0 0 512.000000 512.000000"
 preserveAspectRatio="xMidYMid meet">
<metadata>
Created by potrace 1.14, written by Peter Selinger 2001-2017
</metadata>
<g transform="translate(0.000000,512.000000) scale(0.100000,-0.100000)"
fill="#000000" stroke="none">
<path d="M2527 5104 c-3 -3 -45 -7 -94 -9 -48 -2 -88 -4 -88 -5 0 -1 -22 -3
-50 -5 -93 -8 -125 -12 -132 -18 -3 -4 -12 -2 -19 4 -10 8 -15 8 -19 -3 -4
-10 -15 -13 -31 -10 -13 2 -24 0 -24 -4 0 -5 -12 -10 -27 -11 -16 0 -39 -4
-53 -7 -14 -3 -36 -8 -50 -12 -43 -9 -55 -12 -55 -14 0 -1 -7 -3 -15 -5 -8 -2
-29 -8 -47 -13 -17 -6 -34 -8 -37 -4 -3 3 -6 1 -6 -5 0 -6 -15 -14 -32 -18
-33 -8 -42 -10 -55 -15 -5 -2 -15 -4 -23 -4 -8 -1 -14 -7 -13 -13 1 -6 -6 -9
-17 -6 -11 3 -20 1 -20 -5 0 -6 -8 -9 -17 -8 -10 2 -21 -2 -25 -8 -4 -6 -11
-11 -15 -11 -4 -1 -19 -7 -33 -15 -14 -7 -26 -13 -27 -12 -6 3 -72 -29 -78
-38 -3 -5 -15 -10 -26 -10 -10 0 -19 -4 -19 -10 0 -5 -3 -9 -7 -8 -5 1 -18 -3
-29 -10 -12 -6 -25 -8 -29 -4 -5 4 -5 2 -1 -5 6 -11 -29 -30 -47 -25 -4 1 -7
-5 -7 -14 0 -8 -4 -12 -10 -9 -5 3 -10 1 -10 -5 0 -6 -4 -8 -10 -5 -5 3 -10 1
-10 -5 0 -6 -4 -9 -9 -6 -5 3 -12 -1 -15 -10 -3 -9 -11 -14 -18 -12 -7 3 -22
-6 -34 -19 -12 -13 -26 -23 -33 -23 -6 0 -11 -4 -11 -10 0 -5 -6 -10 -14 -10
-8 0 -16 -3 -18 -7 -4 -10 -75 -63 -83 -63 -4 0 -22 -17 -41 -37 -18 -21 -34
-35 -34 -31 0 4 -36 -28 -80 -71 -44 -43 -80 -76 -80 -73 0 3 -12 -11 -27 -30
-16 -19 -39 -45 -53 -59 -14 -14 -36 -40 -49 -57 -13 -17 -28 -29 -34 -25 -5
3 -7 2 -4 -4 4 -5 -4 -21 -16 -34 -12 -13 -22 -27 -22 -32 0 -4 -7 -12 -15
-17 -8 -5 -12 -10 -8 -10 5 0 0 -8 -10 -18 -26 -29 -52 -62 -52 -67 0 -3 -16
-28 -35 -56 -19 -28 -32 -56 -28 -62 3 -5 2 -7 -4 -4 -5 3 -20 -16 -34 -43
-13 -26 -28 -46 -34 -42 -5 3 -7 2 -3 -3 8 -8 -28 -86 -46 -97 -6 -4 -7 -8 -2
-8 4 0 1 -11 -8 -25 -9 -14 -14 -25 -11 -25 4 0 -1 -10 -9 -22 -9 -12 -16 -30
-16 -40 0 -10 -4 -18 -10 -18 -5 0 -10 -7 -10 -16 0 -8 -5 -25 -12 -37 -7 -12
-13 -27 -14 -34 -1 -7 -9 -25 -16 -41 -8 -16 -14 -36 -12 -45 1 -9 -1 -17 -5
-17 -4 0 -7 -10 -8 -22 -1 -11 -8 -25 -15 -29 -7 -5 -9 -9 -4 -9 5 0 4 -6 -1
-12 -5 -7 -9 -29 -9 -50 1 -20 -2 -34 -6 -31 -5 2 -8 -1 -8 -6 0 -16 0 -17
-11 -53 -13 -47 -22 -89 -23 -120 0 -14 -4 -24 -8 -22 -4 3 -6 -9 -4 -25 2
-17 0 -31 -4 -31 -4 0 -6 -12 -5 -27 1 -16 -1 -32 -4 -38 -3 -5 -6 -23 -7 -40
-6 -110 -8 -131 -17 -142 -5 -7 -6 -13 -1 -13 5 0 9 -25 9 -55 0 -30 -4 -55
-8 -55 -4 0 -3 -9 3 -19 6 -13 7 -22 0 -26 -6 -3 -6 -15 0 -30 6 -15 6 -27 -1
-30 -5 -4 -7 -11 -3 -16 3 -6 8 -33 10 -61 2 -28 7 -54 9 -58 3 -5 -1 -11 -7
-13 -10 -4 -10 -6 -1 -6 7 -1 10 -8 6 -18 -5 -12 -3 -14 8 -8 11 7 12 6 3 -6
-6 -8 -10 -23 -7 -34 2 -11 5 -30 7 -43 1 -12 5 -25 9 -28 3 -3 3 -11 1 -18
-3 -7 0 -24 5 -39 7 -18 7 -27 -2 -31 -9 -3 -9 -5 1 -5 6 -1 12 -14 12 -30 0
-17 4 -32 9 -35 5 -4 8 -17 6 -31 -1 -14 1 -25 6 -25 4 0 6 -9 4 -20 -2 -11 1
-20 6 -20 6 0 8 -4 5 -8 -3 -5 1 -21 9 -36 10 -18 10 -24 2 -19 -8 4 -7 1 1
-10 8 -9 11 -21 7 -27 -3 -5 1 -13 10 -16 13 -6 14 -8 3 -15 -10 -7 -10 -9 0
-9 6 0 12 -11 12 -25 0 -14 5 -25 12 -25 6 0 8 -3 5 -7 -4 -3 -2 -12 3 -19 6
-6 10 -16 9 -20 -2 -10 5 -30 32 -91 10 -24 19 -47 19 -53 0 -5 4 -10 10 -10
5 0 7 -7 4 -15 -4 -8 1 -17 9 -21 9 -3 14 -14 12 -25 -2 -10 3 -23 12 -27 8
-5 15 -13 16 -18 2 -21 22 -64 30 -64 4 0 5 -5 2 -10 -3 -6 -1 -10 5 -10 6 0
8 -4 5 -10 -3 -5 -1 -10 4 -10 6 0 11 -7 11 -15 0 -8 5 -15 11 -15 5 0 8 -3 5
-8 -2 -4 9 -25 25 -47 16 -22 32 -48 35 -57 4 -10 11 -18 16 -18 5 0 6 -5 3
-10 -3 -5 -1 -10 5 -10 6 0 13 -8 17 -17 3 -10 21 -37 40 -60 19 -24 32 -43
28 -43 -3 0 6 -12 22 -26 15 -14 39 -43 54 -65 14 -21 28 -36 31 -33 4 3 9 -4
13 -15 3 -12 11 -21 16 -21 6 0 7 -5 4 -10 -3 -6 -1 -10 5 -10 6 0 18 -7 26
-15 9 -8 13 -15 10 -15 -3 0 6 -11 20 -25 14 -14 27 -25 29 -25 2 0 32 -27 67
-61 106 -101 116 -110 123 -109 4 1 17 -10 30 -24 13 -14 29 -26 35 -26 5 0
10 -4 10 -10 0 -5 6 -10 14 -10 8 0 17 -7 20 -16 3 -8 10 -12 16 -9 5 3 10 2
10 -3 0 -8 87 -67 108 -74 4 -1 18 -12 32 -25 14 -13 30 -21 36 -19 6 2 16 -5
22 -15 7 -10 20 -19 30 -19 9 0 28 -9 42 -20 14 -11 31 -20 38 -20 6 0 12 -5
12 -11 0 -5 4 -8 9 -4 5 3 15 0 23 -7 7 -7 21 -14 31 -16 10 -2 38 -14 63 -28
24 -14 44 -22 44 -19 0 3 10 0 23 -7 12 -7 25 -13 30 -14 4 -1 8 -2 10 -4 1
-1 11 -3 21 -5 10 -2 22 -7 25 -12 3 -4 17 -10 31 -12 14 -1 28 -8 31 -13 4
-6 11 -8 17 -4 6 3 14 1 17 -5 4 -5 13 -8 21 -5 8 3 14 2 14 -3 0 -8 8 -10 54
-13 14 -1 22 -6 19 -12 -4 -5 3 -7 15 -4 12 4 22 2 22 -4 0 -6 6 -8 14 -5 8 3
17 3 20 -1 8 -7 31 -12 66 -15 14 -1 27 -4 30 -8 5 -6 66 -16 150 -24 19 -2
35 -4 35 -5 0 -2 20 -3 45 -4 25 -1 50 -4 55 -8 19 -11 410 -6 417 6 5 7 8 7
8 -2 0 -7 4 -11 9 -7 10 6 91 17 129 17 12 0 22 4 22 7 0 4 16 7 35 6 19 -1
35 1 35 5 0 4 10 6 23 5 12 -1 28 3 36 9 8 6 16 10 18 9 1 -2 15 -3 29 -3 17
0 23 4 18 13 -6 9 -5 9 8 0 8 -7 18 -9 22 -5 4 4 12 8 17 8 5 1 11 3 14 4 9 4
19 7 62 15 25 4 40 12 36 18 -3 5 -1 7 4 4 12 -7 100 20 122 37 12 9 13 8 7
-3 -6 -9 0 -8 17 4 15 9 31 14 37 10 5 -3 13 1 16 9 3 9 10 14 14 11 4 -3 13
2 20 10 7 8 16 12 21 9 5 -2 23 3 41 13 18 9 36 16 41 15 4 -1 7 3 7 9 0 6 7
8 15 5 9 -3 18 1 21 8 3 8 17 17 32 21 14 3 38 15 54 26 15 11 28 17 28 12 0
-4 4 -2 9 6 5 8 16 15 23 17 25 3 78 41 70 49 -4 4 1 5 11 2 9 -4 17 -3 17 2
0 4 12 14 28 22 15 7 36 23 48 34 11 11 27 21 34 23 8 2 18 9 22 15 4 7 8 8 8
4 0 -4 15 8 34 27 19 19 37 32 40 29 3 -3 8 2 12 11 3 9 10 14 15 11 4 -3 13
4 19 16 7 11 14 19 16 16 3 -2 24 14 47 37 23 22 57 53 75 68 19 16 31 28 28
28 -3 0 5 10 17 23 12 13 25 22 29 20 4 -2 9 5 13 16 3 11 13 22 21 25 8 3 12
11 9 16 -4 6 -3 9 2 8 4 -2 18 7 31 20 12 12 19 22 16 22 -6 0 36 47 74 82 12
12 22 28 22 35 0 7 5 13 10 13 6 0 10 6 10 14 0 8 3 16 8 18 11 5 62 75 62 86
0 6 7 13 16 16 8 3 12 10 9 16 -3 5 -1 10 5 10 6 0 9 4 6 9 -3 5 1 12 10 15 8
3 12 10 9 16 -3 5 -2 10 3 10 9 0 47 70 44 83 -1 4 2 7 8 7 9 0 54 89 52 102
-1 5 3 8 8 8 6 0 10 4 10 9 0 5 14 40 32 78 17 37 31 74 31 81 0 6 4 12 8 12
4 0 10 7 13 16 4 9 2 13 -5 8 -6 -3 -4 4 4 17 8 13 22 49 32 79 10 30 20 62
23 70 3 8 6 20 7 25 0 6 4 16 8 23 5 6 5 17 2 22 -3 6 -1 10 4 10 6 0 10 3 9
8 -1 6 4 36 18 95 1 4 2 8 4 10 2 2 10 56 12 85 1 6 4 12 7 12 3 0 7 15 8 33
1 17 5 46 8 62 9 47 15 119 20 263 2 73 7 137 10 142 3 6 3 10 -2 10 -4 0 -8
33 -7 73 0 39 -1 76 -4 81 -3 5 -6 36 -8 70 -2 33 -6 72 -10 86 -4 14 -8 36
-10 50 -3 31 -10 73 -24 128 -6 24 -8 47 -5 52 3 4 1 10 -4 12 -5 1 -11 17
-14 33 -3 17 -12 50 -21 74 -9 24 -14 46 -11 49 2 2 -1 14 -7 26 -7 11 -13 26
-14 31 -1 6 -9 26 -18 46 -8 20 -12 39 -9 43 4 3 1 6 -5 6 -7 0 -11 3 -10 8 1
8 -5 25 -38 100 -13 29 -24 57 -24 62 0 6 -5 10 -10 10 -6 0 -9 3 -8 8 1 4 -3
17 -10 30 -7 12 -10 22 -7 22 4 0 0 7 -7 15 -28 31 -38 45 -38 50 2 11 -25 65
-32 65 -5 0 -8 7 -8 15 0 8 -4 15 -8 15 -5 0 -14 16 -22 35 -8 19 -17 35 -22
35 -4 0 -8 6 -8 13 0 7 -9 20 -20 30 -11 9 -20 23 -20 32 0 8 -9 19 -20 25
-11 6 -20 17 -20 25 0 8 -8 20 -17 27 -10 7 -24 25 -32 40 -8 15 -18 25 -23
22 -4 -3 -8 2 -8 10 0 8 -8 20 -17 25 -10 6 -15 11 -11 11 4 0 -6 13 -22 29
-17 15 -30 34 -30 40 0 7 -4 10 -8 7 -5 -3 -17 7 -28 22 -10 14 -30 35 -43 46
-56 50 -69 64 -64 70 4 3 -1 6 -9 6 -9 0 -19 7 -22 16 -3 8 -10 12 -16 9 -5
-3 -10 1 -10 9 0 9 -4 16 -10 16 -5 0 -25 15 -44 34 -19 19 -37 32 -40 29 -3
-3 -8 2 -12 11 -3 9 -12 16 -20 16 -8 0 -14 5 -14 10 0 6 -7 10 -16 10 -8 0
-13 4 -10 9 3 5 -8 14 -24 21 -17 7 -30 16 -30 20 0 3 -12 13 -27 21 -16 8
-33 19 -40 24 -7 6 -19 15 -27 22 -7 6 -17 9 -20 6 -3 -4 -6 -2 -6 4 0 6 -8
13 -17 17 -22 7 -77 39 -98 56 -8 7 -15 9 -15 5 0 -5 -9 0 -19 9 -11 10 -24
15 -29 12 -6 -3 -13 1 -16 10 -3 8 -10 12 -16 9 -5 -3 -10 -1 -10 4 0 6 -5 11
-11 11 -9 0 -117 47 -162 71 -10 5 -22 7 -27 4 -6 -4 -12 0 -15 7 -3 8 -13 15
-23 16 -34 4 -52 8 -58 15 -4 4 -16 7 -26 7 -10 0 -18 5 -18 11 0 6 -6 9 -12
6 -7 -2 -29 2 -48 10 -19 8 -35 13 -35 12 0 -1 -16 3 -36 10 -20 6 -41 11 -45
10 -5 -1 -12 0 -16 1 -5 1 -12 4 -18 5 -5 1 -11 3 -12 5 -4 2 -22 6 -73 15
-22 3 -53 9 -70 12 -16 3 -49 6 -72 7 -24 0 -43 4 -43 8 0 4 -8 7 -17 6 -47
-1 -257 13 -264 18 -5 3 -9 0 -9 -7 0 -8 -3 -9 -13 0 -8 6 -16 8 -20 5z"/>
</g>
</svg>
