<svg width="36" height="36" viewBox="0 0 36 36" fill="none" xmlns="http://www.w3.org/2000/svg">
<path d="M17.9651 4.85716L33.0864 30.6253H2.85231L17.9651 4.85716ZM17.9651 3C17.3092 3 16.6952 3.37309 16.3168 3.92858L1.24599 29.6967C0.918002 30.2522 0.918002 30.9984 1.24599 31.5539C1.57398 32.1094 2.18792 32.4825 2.89436 32.4825H33.0864C33.7424 32.4825 34.3563 32.1094 34.7347 31.5539C35.1132 30.9984 35.0627 30.2522 34.7347 29.6967L19.6135 3.92858C19.2351 3.37309 18.6295 3 17.9651 3Z" fill="#B81515" stroke="#B81515"/>
<path d="M17.9651 22.1272C17.4436 22.1272 17.0231 21.7127 17.0231 21.1987V13.4466C17.0231 12.9326 17.4436 12.5181 17.9651 12.5181C18.4865 12.5181 18.907 12.9326 18.907 13.4466V21.1987C18.907 21.7127 18.4865 22.1272 17.9651 22.1272Z" fill="#B81515" stroke="#B81515"/>
<path d="M18.907 26.3055C18.907 26.8196 18.4865 27.2341 17.9651 27.2341C17.4436 27.2341 17.0231 26.8196 17.0231 26.3055C17.0231 25.7915 17.4436 25.377 17.9651 25.377C18.4865 25.377 18.907 25.7915 18.907 26.3055Z" fill="#B81515" stroke="#B81515"/>
</svg>
