<svg width="34" height="34" viewBox="0 0 34 34" fill="none" xmlns="http://www.w3.org/2000/svg">
<path fill-rule="evenodd" clip-rule="evenodd" d="M33.025 1.19081C33.9196 2.06325 33.9282 3.48624 33.0442 4.36915L17.0034 20.3903C16.1194 21.2732 14.6775 21.2817 13.7829 20.4093C12.8883 19.5369 12.8797 18.1139 13.7637 17.2309L29.8045 1.20977C30.6885 0.326858 32.1304 0.318369 33.025 1.19081Z" fill="#09B324"/>
<path fill-rule="evenodd" clip-rule="evenodd" d="M19.7648 2.24747C19.7648 1.00623 20.7844 0 22.0421 0H31.7228C32.9804 0 34 1.00623 34 2.24747V11.7379C34 12.9792 32.9804 13.9854 31.7228 13.9854C30.4651 13.9854 29.4455 12.9792 29.4455 11.7379V4.49494H22.0421C20.7844 4.49494 19.7648 3.48871 19.7648 2.24747Z" fill="#09B324"/>
<path fill-rule="evenodd" clip-rule="evenodd" d="M0 6.48233C0 5.24109 1.01955 4.23486 2.27723 4.23486H15.5783C16.836 4.23486 17.8555 5.24109 17.8555 6.48233C17.8555 7.72357 16.836 8.7298 15.5783 8.7298H4.55446V29.505H25.6046L25.6042 18.6253C25.6041 17.3841 26.6236 16.3778 27.8813 16.3777C29.139 16.3777 30.1586 17.3839 30.1586 18.6251L30.1592 31.7524C30.1592 32.3484 29.9193 32.9201 29.4923 33.3416C29.0652 33.7631 28.4859 33.9999 27.882 33.9999H2.27723C1.01955 33.9999 0 32.9937 0 31.7525V6.48233Z" fill="#09B324"/>
</svg>
