<svg width="36" height="36" viewBox="0 0 36 36" fill="none" xmlns="http://www.w3.org/2000/svg">
<path fill-rule="evenodd" clip-rule="evenodd" d="M6.76654 25.875C6.87383 25.7596 7.00347 25.6669 7.14769 25.6025C7.29197 25.5381 7.44776 25.5032 7.6059 25.5H33.9782C34.0898 25.5016 34.1985 25.5351 34.2913 25.5966C34.3842 25.6581 34.4572 25.7449 34.5015 25.8465C34.5458 25.9482 34.5596 26.0604 34.5413 26.1697C34.5228 26.279 34.473 26.3806 34.3978 26.4625L28.8078 32.625C28.7005 32.7404 28.5708 32.8331 28.4266 32.8975C28.2824 32.9619 28.1265 32.9968 27.9685 33H1.5794C1.46783 32.9984 1.35904 32.9649 1.26626 32.9034C1.1734 32.8419 1.1004 32.7551 1.05604 32.6535C1.01176 32.5518 0.997972 32.4396 1.01633 32.3303C1.03469 32.221 1.08454 32.1194 1.15976 32.0375L6.76654 25.875ZM34.423 20.7666C34.4983 20.8485 34.548 20.9502 34.5664 21.0595C34.5848 21.1688 34.571 21.281 34.5267 21.3826C34.4823 21.4844 34.4093 21.5711 34.3165 21.6326C34.2237 21.6941 34.1149 21.7276 34.0033 21.7291L7.62269 21.75C7.46454 21.7468 7.30876 21.7119 7.16447 21.6475C7.02026 21.5831 6.89062 21.4904 6.78333 21.375L1.15133 15.2334C1.07611 15.1515 1.02633 15.0498 1.0079 14.9405C0.989543 14.8312 1.00333 14.719 1.04769 14.6174C1.09204 14.5156 1.16497 14.4289 1.25783 14.3674C1.35069 14.3059 1.4594 14.2724 1.57097 14.2709L27.9517 14.25C28.1098 14.2532 28.2656 14.2881 28.4098 14.3525C28.554 14.4169 28.6837 14.5096 28.791 14.625L34.423 20.7666ZM6.76654 3.375C6.87383 3.25964 7.00347 3.16693 7.14769 3.1025C7.29197 3.03807 7.44776 3.00321 7.6059 3L33.995 3.02086C34.1065 3.02243 34.2153 3.05593 34.3081 3.11743C34.401 3.17886 34.4739 3.26564 34.5183 3.36736C34.5626 3.469 34.5764 3.58121 34.558 3.6905C34.5396 3.79979 34.4898 3.9015 34.4146 3.98336L28.8078 10.125C28.7005 10.2404 28.5708 10.3331 28.4266 10.3975C28.2824 10.4619 28.1265 10.4968 27.9685 10.5H1.5794C1.46783 10.4984 1.35904 10.4649 1.26626 10.4034C1.1734 10.3419 1.1004 10.2551 1.05604 10.1535C1.01176 10.0518 0.997972 9.93957 1.01633 9.83029C1.03469 9.721 1.08454 9.61936 1.15976 9.5375L6.76654 3.375Z" fill="#14F195"/>
</svg>
