<svg width="122" height="18" viewBox="0 0 122 18" fill="none" xmlns="http://www.w3.org/2000/svg">
<path d="M20.4907 14.1937L17.148 17.7562C17.0724 17.8312 16.9969 17.8875 16.8836 17.9437C16.7891 17.9812 16.6758 18 16.5814 18H0.717629C0.642087 18 0.566545 17.9812 0.509889 17.9437C0.453232 17.9062 0.396576 17.85 0.358805 17.775C0.321034 17.7 0.321034 17.625 0.33992 17.55C0.358805 17.475 0.377691 17.4 0.434347 17.3438L3.77707 13.7812C3.85261 13.7063 3.92815 13.65 4.04147 13.5938C4.13589 13.5562 4.24921 13.5375 4.34363 13.5375H20.2074C20.283 13.5375 20.3585 13.5562 20.4151 13.5938C20.4718 13.6313 20.5285 13.6875 20.5662 13.7625C20.604 13.8375 20.604 13.9125 20.5851 13.9875C20.5662 14.0625 20.5473 14.1375 20.4907 14.1937ZM17.148 7.0125C17.0724 6.9375 16.9969 6.88125 16.8836 6.825C16.7891 6.7875 16.6758 6.76875 16.5814 6.76875H0.717629C0.642087 6.76875 0.566545 6.7875 0.509889 6.825C0.453232 6.8625 0.396576 6.91875 0.358805 6.99375C0.321034 7.06875 0.321034 7.14375 0.33992 7.21875C0.358805 7.29375 0.377691 7.36875 0.434347 7.425L3.77707 10.9875C3.85261 11.0625 3.92815 11.1187 4.04147 11.175C4.13589 11.2125 4.24921 11.2313 4.34363 11.2313H20.2074C20.283 11.2313 20.3585 11.2125 20.4151 11.175C20.4718 11.1375 20.5285 11.0813 20.5662 11.0063C20.604 10.9313 20.604 10.8562 20.5851 10.7812C20.5662 10.7063 20.5473 10.6313 20.4907 10.575L17.148 7.0125ZM0.717629 4.4625H16.5814C16.6947 4.4625 16.7891 4.44375 16.8836 4.40625C16.978 4.36875 17.0724 4.29375 17.148 4.21875L20.4907 0.65625C20.5473 0.6 20.5851 0.525 20.5851 0.45C20.5851 0.375 20.5851 0.3 20.5662 0.225C20.5285 0.15 20.4907 0.09375 20.4151 0.05625C20.3585 0.01875 20.283 0 20.2074 0H4.34363C4.23032 0 4.13589 0.01875 4.04147 0.05625C3.94704 0.09375 3.85261 0.16875 3.77707 0.24375L0.434347 3.80625C0.377691 3.8625 0.33992 3.9375 0.33992 4.0125C0.321034 4.0875 0.33992 4.1625 0.358805 4.2375C0.396576 4.3125 0.434347 4.36875 0.509889 4.40625C0.566545 4.44375 0.642087 4.4625 0.717629 4.4625Z" fill="url(#paint0_linear_531_255)"/>
<path d="M39.8294 7.6125H31.3499V4.8375H42.039V2.0625H31.3121C30.9533 2.0625 30.5756 2.1375 30.2356 2.26875C29.8957 2.4 29.5935 2.60625 29.3291 2.86875C29.0647 3.13125 28.857 3.43125 28.7248 3.76875C28.5737 4.10625 28.5171 4.4625 28.4982 4.81875V7.63125C28.4982 7.9875 28.5737 8.3625 28.7059 8.7C28.857 9.0375 29.0458 9.3375 29.3102 9.6C29.5746 9.8625 29.8768 10.05 30.2167 10.2C30.5567 10.3313 30.9155 10.4062 31.2932 10.4062H39.7917V13.1813H28.687V15.9375H39.8106C40.1694 15.9375 40.5471 15.8625 40.887 15.7313C41.227 15.6 41.5291 15.3937 41.7935 15.1312C42.0579 14.8687 42.2657 14.5688 42.3979 14.2313C42.5489 13.8938 42.6056 13.5375 42.6245 13.1813V10.3687C42.6245 10.0125 42.5489 9.6375 42.4167 9.3C42.2657 8.9625 42.0768 8.6625 41.8124 8.4C41.548 8.1375 41.2459 7.95 40.9059 7.8C40.566 7.65 40.2071 7.6125 39.8294 7.6125Z" fill="#CCCCCC"/>
<path d="M56.2787 2.0625H47.7613C47.4025 2.0625 47.0248 2.1375 46.6848 2.26875C46.3449 2.4 46.0427 2.60625 45.7783 2.86875C45.5139 3.13125 45.3062 3.43125 45.174 3.76875C45.0229 4.10625 44.9663 4.4625 44.9474 4.8375V13.2C44.9474 13.5563 45.0229 13.9312 45.174 14.2687C45.3251 14.6062 45.5328 14.9062 45.7783 15.1688C46.0427 15.4313 46.3449 15.6187 46.6848 15.7687C47.0248 15.9 47.3836 15.975 47.7613 15.975H56.2787C56.6375 15.975 57.0152 15.9 57.3551 15.7687C57.6951 15.6375 57.9972 15.4313 58.2616 15.1688C58.526 14.9062 58.7338 14.6062 58.866 14.2687C59.017 13.9312 59.0737 13.575 59.0926 13.2188V4.81875C59.0926 4.4625 59.017 4.0875 58.866 3.76875C58.7149 3.43125 58.526 3.13125 58.2616 2.86875C57.9972 2.60625 57.6951 2.41875 57.3551 2.26875C57.0152 2.1375 56.6375 2.0625 56.2787 2.0625ZM56.2598 13.1625H47.7802V4.8375H56.2598V13.1625Z" fill="#CCCCCC"/>
<path d="M86.1177 2.0625H77.8081C77.4492 2.0625 77.0715 2.1375 76.7316 2.26875C76.3917 2.4 76.0895 2.60625 75.8251 2.86875C75.5607 3.13125 75.353 3.43125 75.2208 3.76875C75.0697 4.10625 75.013 4.4625 74.9941 4.81875V15.9375H77.827V11.3813H86.1177V15.9375H88.9505V4.81875C88.9505 4.4625 88.8749 4.0875 88.7238 3.75C88.5728 3.4125 88.365 3.1125 88.1006 2.85C87.8362 2.5875 87.5341 2.4 87.1941 2.25C86.8542 2.11875 86.4765 2.0625 86.1177 2.0625ZM86.0988 8.60625H77.827V4.8375H86.0988V8.60625Z" fill="#CCCCCC"/>
<path d="M119.205 2.0625H110.895C110.537 2.0625 110.159 2.1375 109.819 2.26875C109.479 2.4 109.177 2.60625 108.912 2.86875C108.648 3.13125 108.44 3.43125 108.308 3.76875C108.157 4.10625 108.1 4.4625 108.081 4.81875V15.9375H110.914V11.3813H119.167V15.9375H122V4.81875C122 4.4625 121.924 4.0875 121.773 3.76875C121.622 3.43125 121.433 3.13125 121.169 2.86875C120.905 2.60625 120.602 2.41875 120.263 2.26875C119.923 2.1375 119.564 2.0625 119.205 2.0625ZM119.167 8.60625H110.895V4.8375H119.167V8.60625Z" fill="#CCCCCC"/>
<path d="M102.737 13.1625H101.604L97.5433 3.225C97.4111 2.8875 97.1656 2.5875 96.8635 2.38125C96.5613 2.175 96.1836 2.0625 95.8247 2.0625H93.313C93.0675 2.0625 92.822 2.1 92.5953 2.19375C92.3687 2.2875 92.161 2.41875 91.991 2.5875C91.821 2.75625 91.6888 2.9625 91.5755 3.1875C91.4811 3.4125 91.4244 3.65625 91.4244 3.9V15.9375H94.2573V4.8375H95.3904L99.4319 14.775C99.5641 15.1125 99.8096 15.4125 100.131 15.6188C100.433 15.825 100.811 15.9375 101.169 15.9375H103.681C103.927 15.9375 104.172 15.9 104.399 15.8063C104.625 15.7125 104.833 15.5812 105.003 15.4125C105.173 15.2437 105.324 15.0375 105.419 14.8125C105.513 14.5875 105.57 14.3437 105.57 14.1V2.0625H102.737V13.1625Z" fill="#CCCCCC"/>
<path d="M64.4183 2.0625H61.5854V13.1813C61.5854 13.5375 61.661 13.9125 61.8121 14.25C61.9632 14.5875 62.1709 14.8875 62.4164 15.15C62.6619 15.4125 62.983 15.6 63.3229 15.75C63.6628 15.8813 64.0217 15.9562 64.3994 15.9562H72.8978V13.1625H64.4183V2.0625Z" fill="#CCCCCC"/>
<defs>
<linearGradient id="paint0_linear_531_255" x1="2.04125" y1="18.4291" x2="18.5417" y2="-0.307522" gradientUnits="userSpaceOnUse">
<stop offset="0.08" stop-color="#9945FF"/>
<stop offset="0.3" stop-color="#8752F3"/>
<stop offset="0.5" stop-color="#5497D5"/>
<stop offset="0.6" stop-color="#43B4CA"/>
<stop offset="0.72" stop-color="#28E0B9"/>
<stop offset="0.97" stop-color="#19FB9B"/>
</linearGradient>
</defs>
</svg>
