<svg width="46" height="43" fill="none" xmlns="http://www.w3.org/2000/svg"><path d="M7.85 32.83c.276-.336.646-.525 1.033-.525h35.81c.653 0 .98.967.515 1.525l-7.076 8.644c-.275.336-.644.526-1.031.526H1.299c-.653 0-.98-.968-.516-1.525l7.068-8.645z" fill="url(#paint0_linear_1522_320)"/><path d="M7.85.526C8.127.189 8.497 0 8.884 0h35.81c.653 0 .98.967.515 1.525l-7.076 8.644c-.275.336-.644.526-1.031.526H1.299c-.653 0-.98-.968-.516-1.525L7.851.526z" fill="url(#paint1_linear_1522_320)"/><path d="M38.132 16.574c-.275-.337-.644-.526-1.031-.526H1.299c-.653 0-.98.967-.516 1.525l7.076 8.644c.276.336.645.526 1.032.526h35.81c.654 0 .98-.968.516-1.525l-7.085-8.644z" fill="url(#paint2_linear_1522_320)"/><defs><linearGradient id="paint0_linear_1522_320" x1="41.273" y1="-5.166" x2="7.761" y2="47.315" gradientUnits="userSpaceOnUse"><stop stop-color="#00FFA3"/><stop offset="1" stop-color="#DC1FFF"/></linearGradient><linearGradient id="paint1_linear_1522_320" x1="30.438" y1="-12.084" x2="-3.074" y2="40.396" gradientUnits="userSpaceOnUse"><stop stop-color="#00FFA3"/><stop offset="1" stop-color="#DC1FFF"/></linearGradient><linearGradient id="paint2_linear_1522_320" x1="35.821" y1="-8.646" x2="2.309" y2="43.834" gradientUnits="userSpaceOnUse"><stop stop-color="#00FFA3"/><stop offset="1" stop-color="#DC1FFF"/></linearGradient></defs></svg>