<svg width="71" height="29" viewBox="0 0 71 29" fill="none" xmlns="http://www.w3.org/2000/svg">
<path d="M39.7953 20.7144V11.5006H36.2788V9.03149H46.352V11.5006H42.8353V20.7144H39.7953Z" fill="#303757"/>
<path d="M46.6426 14.8646C46.6426 13.6493 46.8778 12.5943 47.3492 11.6994C47.8201 10.7935 48.4938 10.092 49.3704 9.59484C50.2464 9.09769 51.2817 8.84912 52.4761 8.84912C53.6808 8.84912 54.7217 9.09769 55.5983 9.59484C56.4743 10.092 57.148 10.7935 57.6194 11.6994C58.1011 12.5943 58.3425 13.6493 58.3425 14.8646C58.3425 16.0687 58.1011 17.1238 57.6194 18.0297C57.148 18.9356 56.4743 19.6427 55.5983 20.1508C54.7217 20.648 53.6808 20.8966 52.4761 20.8966C51.2817 20.8966 50.2464 20.648 49.3704 20.1508C48.5046 19.6427 47.8308 18.9356 47.3492 18.0297C46.8778 17.1238 46.6426 16.0687 46.6426 14.8646ZM49.814 14.8646C49.814 15.5937 49.9126 16.2179 50.1098 16.7371C50.307 17.2564 50.5971 17.6541 50.9807 17.9303C51.3751 18.2064 51.8732 18.3446 52.4761 18.3446C53.3742 18.3446 54.048 18.0407 54.4973 17.4331C54.9461 16.8144 55.171 15.9583 55.171 14.8646C55.171 14.1354 55.0724 13.5112 54.8752 12.992C54.678 12.4727 54.3766 12.0806 53.9714 11.8154C53.5771 11.5392 53.0784 11.4011 52.4761 11.4011C51.5774 11.4011 50.9094 11.7049 50.4713 12.3125C50.0328 12.9091 49.814 13.7598 49.814 14.8646Z" fill="#303757"/>
<path d="M60.1614 20.7144V9.03149H62.3962L68.2626 16.3726H67.786V9.03149H70.596V20.7144H68.3612L62.5277 13.3732H63.0042V20.7144H60.1614Z" fill="#303757"/>
<path d="M14.3784 29C22.3193 29 28.7568 22.5081 28.7568 14.5C28.7568 6.49187 22.3193 0 14.3784 0C6.43742 0 0 6.49187 0 14.5C0 22.5081 6.43742 29 14.3784 29Z" fill="#0088CC"/>
<path fill-rule="evenodd" clip-rule="evenodd" d="M10.3774 9.58257L18.4418 9.58252C18.7271 9.58252 19.0122 9.62478 19.3102 9.76486C19.6673 9.93275 19.8567 10.1974 19.9894 10.3931C19.9997 10.4083 20.0094 10.424 20.0183 10.44C20.1743 10.7201 20.2547 11.0225 20.2547 11.3477C20.2547 11.6568 20.1818 11.9935 20.0183 12.287C20.0168 12.2898 20.0152 12.2926 20.0136 12.2954L14.9186 21.1215C14.8062 21.3161 14.5994 21.4355 14.3761 21.4347C14.1528 21.4339 13.9468 21.313 13.8359 21.1176L8.83444 12.3103C8.833 12.308 8.83156 12.3056 8.83013 12.3031C8.71566 12.1129 8.53866 11.8188 8.50769 11.4392C8.47924 11.0901 8.55704 10.7403 8.73097 10.4371C8.90489 10.1338 9.16673 9.89132 9.48167 9.7429C9.81936 9.58376 10.1616 9.58257 10.3774 9.58257ZM13.7532 10.8434H10.3774C10.1556 10.8434 10.0705 10.8572 10.0109 10.8852C9.92863 10.924 9.85951 10.9877 9.8133 11.0683C9.76708 11.1489 9.74618 11.2424 9.75378 11.3359C9.75815 11.3895 9.77982 11.4508 9.90763 11.6634C9.9103 11.6678 9.91292 11.6723 9.91549 11.6768L13.7532 18.4348V10.8434ZM15.0035 10.8434V18.4682L18.9301 11.6661C18.9744 11.5849 19.0044 11.4676 19.0044 11.3477C19.0044 11.2505 18.9844 11.1661 18.9398 11.0791C18.8929 11.0111 18.8643 10.9751 18.8405 10.9505C18.82 10.9294 18.8042 10.9181 18.7819 10.9077C18.6891 10.864 18.5941 10.8434 18.4418 10.8434H15.0035Z" fill="white"/>
</svg>
