<svg width="64" height="64" viewBox="0 0 64 64" fill="none" xmlns="http://www.w3.org/2000/svg">
<circle cx="32" cy="32" r="32" fill="#09B324"/>
<path d="M50.0082 30.5696V25.1217C50.0082 23.3326 48.5528 21.8771 46.7637 21.8771H33.8376C33.9841 21.3326 34.0602 20.7668 34.0602 20.189C34.0602 19.6403 33.991 19.1076 33.8619 18.5984C35.0497 19.982 36.8095 20.861 38.7717 20.861C42.3402 20.861 45.2434 17.9578 45.2434 14.3892C45.2434 10.8207 42.3402 7.91748 38.7716 7.91748C35.2031 7.91748 32.2999 10.8207 32.2999 14.3892C32.2999 14.9379 32.3691 15.4707 32.4982 15.9797C31.3104 14.5962 29.5506 13.7172 27.5884 13.7172C24.0199 13.7172 21.1167 16.6205 21.1167 20.189C21.1167 20.7667 21.1929 21.3325 21.3393 21.8771H17.1002C15.3111 21.8771 13.8557 23.3325 13.8557 25.1217V46.8998C13.8557 48.6888 15.3111 50.1442 17.1002 50.1442H46.7637C48.5527 50.1442 50.0082 48.6888 50.0082 46.8998V41.4518C51.4989 41.2776 52.6596 40.0076 52.6596 38.4711V33.5505C52.6597 32.0137 51.4989 30.7437 50.0082 30.5696ZM38.7716 10.6465C40.8354 10.6465 42.5144 12.3255 42.5144 14.3892C42.5144 16.453 40.8354 18.132 38.7716 18.132C36.7079 18.132 35.0289 16.453 35.0289 14.3892C35.0289 12.3255 36.7079 10.6465 38.7716 10.6465ZM27.5885 16.4461C29.6522 16.4461 31.3312 18.1251 31.3312 20.1889C31.3312 20.784 31.1941 21.3577 30.9305 21.877H24.2465C23.983 21.3576 23.8457 20.784 23.8457 20.1889C23.8458 18.1252 25.5247 16.4461 27.5885 16.4461ZM47.2792 46.8997C47.2792 47.184 47.048 47.4151 46.7636 47.4151H17.1001C16.8158 47.4151 16.5846 47.1839 16.5846 46.8997V25.1216C16.5846 24.8373 16.8159 24.6059 17.1001 24.6059C17.6884 24.6059 46.0548 24.6059 46.7636 24.6059C47.0479 24.6059 47.2792 24.8372 47.2792 25.1216V30.5485C46.4303 30.5485 38.5014 30.5485 37.6501 30.5485C36.0485 30.5485 34.7454 31.8516 34.7454 33.4533C34.7454 34.5936 34.7454 38.1464 34.7454 38.5681C34.7454 40.1697 36.0485 41.4728 37.6501 41.4728C38.5013 41.4728 46.4303 41.4728 47.2792 41.4728V46.8997ZM49.9307 38.4709C49.9307 38.6213 49.8084 38.7437 49.6579 38.7437C49.2271 38.7437 38.3438 38.7437 37.7473 38.7437C37.5969 38.7437 37.4744 38.6214 37.4744 38.4709V33.5503C37.4744 33.3999 37.5969 33.2775 37.7473 33.2775C38.3571 33.2775 49.2351 33.2775 49.6579 33.2775C49.8083 33.2775 49.9307 33.3999 49.9307 33.5503V38.4709Z" fill="#1C1D29"/>
<path d="M40.198 37.8183C41.1964 37.8183 42.0058 37.0089 42.0058 36.0105C42.0058 35.012 41.1964 34.2026 40.198 34.2026C39.1996 34.2026 38.3902 35.012 38.3902 36.0105C38.3902 37.0089 39.1996 37.8183 40.198 37.8183Z" fill="#1C1D29"/>
</svg>
