<?xml version="1.0" encoding="utf-8"?>
<!-- Generator: Adobe Illustrator 23.0.0, SVG Export Plug-In . SVG Version: 6.00 Build 0)  -->
<svg version="1.1" id="Слой_1" xmlns="http://www.w3.org/2000/svg" xmlns:xlink="http://www.w3.org/1999/xlink" x="0px" y="0px"
	 viewBox="0 0 512 512" style="enable-background:new 0 0 512 512; fill:#09B024" xml:space="preserve">
<path d="M256,486c-54.9,0-105.8,23.9-143.3,8c-45.2-19.2-69.1-47.8-69.1-82.9c0-46.8,46.3-96.4,109.6-119.2
	c-27-30.6-42.2-72-42.2-115.7c0-43.7,14.9-84.7,41.9-115.5c27.3-31.1,63.7-48.3,102.7-48.3c80,0,145,73.7,145,164.3
	c0,43.7-15.2,85.1-42.2,115.7c28.3,10.2,54.2,25.9,73.8,45.1c23.4,22.9,36.3,49.2,36.3,74.1c0,35-23.9,63.6-69.1,82.7
	C361.9,510,311,486,256,486z M207.9,331.2c10.1,24.1,28.4,39.7,48.1,39.7c20.1,0,38.2-15.4,48.2-39.7c-15.5,6.2-31.7,9.3-48.2,9.3
	C239.5,340.4,223.4,337.3,207.9,331.2z M167.8,326.7c-52.6,18.6-87.3,57.9-87.3,84.9c0,18.5,16.7,35.8,47,48.7
	c32.5,13.9,78.1-11.2,128.5-11.2h0c50.2,0,95.9,24.9,128.5,11c30.3-13,47-30.2,47-48.5c0-27.1-34.7-66.3-87.4-85
	c-5.6,21.2-15.9,40.4-29.7,54.7c-16.5,17.1-37.2,26.5-58.4,26.5C215.5,407.8,180.3,374.9,167.8,326.7z M256,48.8
	c-59.6,0-108.1,57.1-108.1,127.4S196.4,303.5,256,303.5c59.6,0,108.1-57.1,108.1-127.4S315.6,48.8,256,48.8z"/>
</svg>
