<svg width="459" height="459" viewBox="0 0 459 459" fill="none" xmlns="http://www.w3.org/2000/svg">
<g opacity="0.25">
<path d="M420.75 229.5C420.75 335.108 335.108 420.75 229.5 420.75C123.892 420.75 38.25 335.108 38.25 229.5C38.25 123.892 123.892 38.25 229.5 38.25C335.108 38.25 420.75 123.892 420.75 229.5Z" fill="#4CAF50"/>
<path d="M229.5 38.25V229.5L306 267.75L221.439 420.75C224.47 420.75 226.469 420.75 229.5 420.75C335.194 420.75 420.75 335.194 420.75 229.5C420.75 123.806 335.194 38.25 229.5 38.25Z" fill="#FFC107"/>
<path d="M420.75 229.5C420.75 335.108 335.108 420.75 229.5 420.75C123.892 420.75 38.25 335.108 38.25 229.5C38.25 123.892 123.892 38.25 229.5 38.25C335.108 38.25 420.75 123.892 420.75 229.5Z" fill="#4CAF50"/>
<path d="M229.5 38.25V229.5L306 267.75L221.439 420.75C224.47 420.75 226.469 420.75 229.5 420.75C335.194 420.75 420.75 335.194 420.75 229.5C420.75 123.806 335.194 38.25 229.5 38.25Z" fill="#FFC107"/>
<path d="M400.095 143.438H229.5V267.75L200.813 258.188L68.4675 126.799H68.2762C102.127 73.5356 161.702 38.25 229.5 38.25C304.088 38.25 368.634 81.09 400.095 143.438Z" fill="#F44336"/>
<path d="M68.4484 126.837L153.01 268.955L200.812 258.187L68.4484 126.837Z" fill="#DD2C00"/>
<path d="M221.439 420.75L306.87 267.186L267.75 239.062L221.439 420.75Z" fill="#558B2F"/>
<path d="M400.334 143.438H229.5L214.401 187.234L400.334 143.438Z" fill="#F9A825"/>
<path d="M315.562 229.5C315.562 277.016 277.016 315.562 229.5 315.562C181.984 315.562 143.438 277.016 143.438 229.5C143.438 181.984 181.984 143.438 229.5 143.438C277.016 143.438 315.562 181.984 315.562 229.5Z" fill="white"/>
<path d="M296.438 229.5C296.438 266.478 266.478 296.438 229.5 296.438C192.522 296.438 162.562 266.478 162.562 229.5C162.562 192.522 192.522 162.562 229.5 162.562C266.478 162.562 296.438 192.522 296.438 229.5Z" fill="#2196F3"/>
</g>
</svg>
