<svg width="38" height="33" viewBox="0 0 38 33" fill="none" xmlns="http://www.w3.org/2000/svg">
<path d="M18.9631 2.96641L34.9738 30.2503H2.96127L18.9631 2.96641ZM18.9631 1C18.2685 1 17.6185 1.39504 17.2178 1.9832L1.26046 29.2671C0.913179 29.8553 0.913179 30.6453 1.26046 31.2335C1.60775 31.8217 2.25779 32.2167 3.00579 32.2167H34.9738C35.6684 32.2167 36.3184 31.8217 36.7191 31.2335C37.1199 30.6453 37.0664 29.8553 36.7191 29.2671L20.7084 1.9832C20.3077 1.39504 19.6666 1 18.9631 1Z" fill="#FFBB0E" stroke="#FFBB0E"/>
<path d="M18.963 21.252C18.4109 21.252 17.9656 20.8131 17.9656 20.2688V12.0608C17.9656 11.5166 18.4109 11.0776 18.963 11.0776C19.5151 11.0776 19.9603 11.5166 19.9603 12.0608V20.2688C19.9603 20.8131 19.5151 21.252 18.963 21.252Z" fill="#FFBB0E" stroke="#FFBB0E"/>
<path d="M19.9603 25.6766C19.9603 26.2208 19.5151 26.6598 18.963 26.6598C18.4109 26.6598 17.9656 26.2208 17.9656 25.6766C17.9656 25.1323 18.4109 24.6934 18.963 24.6934C19.5151 24.6934 19.9603 25.1323 19.9603 25.6766Z" fill="#FFBB0E" stroke="#FFBB0E"/>
</svg>
