<?xml version="1.0" encoding="utf-8"?>
<!-- Generator: Adobe Illustrator 23.0.0, SVG Export Plug-In . SVG Version: 6.00 Build 0)  -->
<svg version="1.1" id="Слой_1" xmlns="http://www.w3.org/2000/svg" xmlns:xlink="http://www.w3.org/1999/xlink" x="0px" y="0px"
	 viewBox="0 0 512 512" style="enable-background:new 0 0 512 512; fill:#09B024" xml:space="preserve">
<path d="M26,353.7c0-11.7,9.3-21,21-21c11.4,0,20.8,9.3,20.8,21v60.9l92.6-92.4c8.2-8.2,21.2-8.2,29.4,0c8.2,8.2,8.2,21.5,0,29.6
	l-92.4,92.4h61.1c11.4,0,20.8,9.3,20.8,21c0,11.4-9.3,20.8-20.8,20.8H47c-11.7,0-21-9.3-21-20.8L26,353.7z M444.2,97.4l-92.4,92.4
	c-8.2,8.2-21.5,8.2-29.6,0c-8.2-8.2-8.2-21.2,0-29.4l92.4-92.6h-60.9c-11.7,0-21-9.3-21-20.8c0-11.7,9.3-21,21-21h111.5
	c11.4,0,20.8,9.3,20.8,21v111.5c0,11.4-9.3,20.8-20.8,20.8c-11.7,0-21-9.3-21-20.8L444.2,97.4z M97.4,67.8l92.4,92.6
	c8.2,8.2,8.2,21.2,0,29.4c-8.2,8.2-21.2,8.2-29.4,0L67.8,97.4v61.1c0,11.4-9.3,20.8-20.8,20.8c-11.7,0-21-9.3-21-20.8V47
	c0-4,0.9-7.5,2.8-10.7l0.2-0.5h0.2v-0.2l0.2-0.2l0.2-0.5H30v-0.2c1.4-1.9,2.8-3.3,4.7-4.7h0.2v-0.2l0.5-0.2l0.2-0.2h0.2V29l0.5-0.2
	C39.5,27.2,43,26,47,26h111.5c11.4,0,20.8,9.3,20.8,21c0,11.4-9.3,20.8-20.8,20.8L97.4,67.8L97.4,67.8z M414.6,444.2l-92.4-92.4
	c-8.2-8.2-8.2-21.5,0-29.6c8.2-8.2,21.5-8.2,29.6,0l92.4,92.4v-60.9c0-11.7,9.3-21,21-21c11.4,0,20.8,9.3,20.8,21v111.5
	c0,11.4-9.3,20.8-20.8,20.8H353.7c-11.7,0-21-9.3-21-20.8c0-11.7,9.3-21,21-21L414.6,444.2z"/>
</svg>
