<?xml version="1.0" encoding="utf-8"?>
<!-- Generator: Adobe Illustrator 23.0.0, SVG Export Plug-In . SVG Version: 6.00 Build 0)  -->
<svg version="1.1" id="Слой_1" xmlns="http://www.w3.org/2000/svg" xmlns:xlink="http://www.w3.org/1999/xlink" x="0px" y="0px"
	 viewBox="0 0 512 512" style="enable-background:new 0 0 512 512;fill:#09B024" xml:space="preserve">
<path d="M195.9,448.3c0,11.7-9.3,21-21,21c-11.4,0-20.8-9.3-20.8-21v-60.9l-92.6,92.4c-8.2,8.2-21.2,8.2-29.4,0s-8.2-21.5,0-29.6
	l92.4-92.4H63.5c-11.4,0-20.8-9.3-20.8-21c0-11.4,9.3-20.8,20.8-20.8h111.5c11.7,0,21,9.3,21,20.8V448.3z M357.8,124.6l92.4-92.4
	c8.2-8.2,21.5-8.2,29.6,0c8.2,8.2,8.2,21.2,0,29.4l-92.4,92.6h60.9c11.7,0,21,9.3,21,20.8c0,11.7-9.3,21-21,21H336.8
	c-11.4,0-20.8-9.3-20.8-21V63.4c0-11.4,9.3-20.8,20.8-20.8c11.7,0,21,9.3,21,20.8V124.6z M124.6,154.1L32.2,61.5
	c-8.2-8.2-8.2-21.2,0-29.4s21.2-8.2,29.4,0l92.6,92.4V63.4c0-11.4,9.3-20.8,20.8-20.8c11.7,0,21,9.3,21,20.8v111.5
	c0,4-0.9,7.5-2.8,10.7l-0.2,0.5h-0.2v0.2l-0.2,0.2l-0.2,0.5H192v0.2c-1.4,1.9-2.8,3.3-4.7,4.7h-0.2v0.2l-0.5,0.2l-0.2,0.2h-0.2v0.4
	l-0.5,0.2c-3.2,1.6-6.7,2.8-10.7,2.8H63.5c-11.4,0-20.8-9.3-20.8-21c0-11.4,9.3-20.8,20.8-20.8H124.6L124.6,154.1z M387.5,357.8
	l92.4,92.4c8.2,8.2,8.2,21.5,0,29.6c-8.2,8.2-21.5,8.2-29.6,0l-92.4-92.4v60.9c0,11.7-9.3,21-21,21c-11.4,0-20.8-9.3-20.8-21V336.8
	c0-11.4,9.3-20.8,20.8-20.8h111.5c11.7,0,21,9.3,21,20.8c0,11.7-9.3,21-21,21H387.5z"/>
</svg>
