<svg width="40" height="40" viewBox="0 0 40 40" fill="none" xmlns="http://www.w3.org/2000/svg">
<path d="M40 20C40 31.045 31.045 40 20 40C8.955 40 0 31.045 0 20C0 8.955 8.955 0 20 0C31.045 0 40 8.955 40 20Z" fill="url(#paint0_linear_821_375)"/>
<path opacity="0.05" d="M6.11898 19.4659C14.274 15.7709 23.852 11.7619 25.327 11.1819C28.579 9.90287 29.997 11.2099 29.775 13.2949C29.502 15.8499 28.208 23.2849 27.412 28.6119C26.946 31.7289 25.258 32.6839 23.353 31.4749C21.908 30.5579 16.94 27.3049 15.633 26.1929C14.742 25.4349 14.121 24.5849 14.753 23.7189C14.938 23.4659 15.411 22.9559 15.674 22.7019C16.993 21.4239 16.815 21.1489 15.22 22.2899C15.03 22.4259 13.928 23.2249 13.475 23.5269C12.365 24.2669 11.344 24.3069 9.61298 23.7189C8.19698 23.2379 6.83698 22.8669 5.97898 22.4959C4.79398 21.9829 4.33998 20.2719 6.11898 19.4659Z" fill="black"/>
<path opacity="0.07" d="M6.83598 19.5911C14.408 16.2061 23.72 12.3271 25.082 11.7781C28.346 10.4601 29.547 11.2421 29.196 13.7891C28.87 16.1471 27.713 23.4431 26.902 28.3341C26.424 31.2131 25.028 31.8471 23.21 30.6711C22.071 29.9371 17.487 26.9171 16.375 26.0381C15.515 25.3591 14.624 24.5751 15.665 23.4401C16.013 23.0611 17.935 21.2061 19.372 19.8261C20.205 19.0251 19.908 18.6301 18.903 19.3181C17.06 20.5811 14.045 22.5801 13.507 22.9431C12.482 23.6331 11.519 23.7991 9.84298 23.2721C8.52198 22.8561 7.24598 22.4531 6.58098 22.1941C5.09498 21.6181 5.07498 20.3781 6.83598 19.5911Z" fill="black"/>
<path d="M7.55301 19.717C14.543 16.642 23.588 12.893 24.837 12.374C28.112 11.016 29.117 11.276 28.616 14.284C28.256 16.446 27.218 23.603 26.39 28.058C25.899 30.7 24.797 31.013 23.065 29.87C22.232 29.32 18.027 26.539 17.114 25.886C16.281 25.291 15.132 24.575 16.573 23.165C17.086 22.663 20.447 19.453 23.066 16.955C23.409 16.627 22.978 16.088 22.582 16.351C19.052 18.692 14.158 21.941 13.535 22.364C12.594 23.003 11.69 23.296 10.068 22.83C8.84201 22.478 7.64501 22.058 7.17901 21.898C5.38401 21.282 5.81001 20.484 7.55301 19.717Z" fill="white"/>
<defs>
<linearGradient id="paint0_linear_821_375" x1="5.858" y1="5.858" x2="34.142" y2="34.142" gradientUnits="userSpaceOnUse">
<stop stop-color="#33BEF0"/>
<stop offset="1" stop-color="#0A85D9"/>
</linearGradient>
</defs>
</svg>
