<svg width="256" height="256" viewBox="0 0 256 256" fill="none" xmlns="http://www.w3.org/2000/svg">
<path d="M80.5072 232.015C177.111 232.015 229.95 151.978 229.95 82.5724C229.95 80.2997 229.95 78.0355 229.797 75.7826C240.077 68.3472 248.949 59.1425 256 48.5951C246.414 52.8419 236.245 55.6295 225.831 56.8583C236.797 50.2933 245.003 39.9707 248.923 27.8077C238.612 33.9262 227.333 38.2384 215.571 40.5566C195.68 19.4051 162.408 18.384 141.257 38.2754C127.615 51.104 121.829 70.2188 126.061 88.4605C83.8352 86.3413 44.4876 66.3959 17.8178 33.582C3.87702 57.5808 10.9967 88.2841 34.0797 103.695C25.7198 103.448 17.5447 101.192 10.2401 97.1219C10.2401 97.3381 10.2401 97.5628 10.2401 97.7875C10.2458 122.79 27.8702 144.323 52.3782 149.275C44.6469 151.383 36.5316 151.693 28.6609 150.177C35.5417 171.573 55.2596 186.231 77.731 186.652C59.131 201.27 36.1561 209.203 12.5015 209.18C8.32294 209.171 4.15009 208.918 0 208.421C24.0188 223.835 51.9686 232.01 80.5072 231.973" fill="#1DA1F2"/>
</svg>
