<svg width="67" height="74" viewBox="0 0 67 74" fill="none" xmlns="http://www.w3.org/2000/svg">
<path d="M61.975 39.53V30.4851C61.975 27.47 59.4625 25.125 56.615 25.125H34.84C35.0075 24.2875 35.175 23.2825 35.175 22.2775C35.175 21.44 35.0075 20.435 34.84 19.5975C36.85 21.9425 39.6975 23.45 43.0475 23.45C49.0775 23.45 53.935 18.5925 53.935 12.5625C53.935 6.53255 49.0775 1.67505 43.0475 1.67505C37.0175 1.67505 32.16 6.53255 32.16 12.5625C32.16 13.4 32.3275 14.405 32.495 15.2425C30.485 12.8975 27.6375 11.39 24.2875 11.39C18.2575 11.39 13.4 16.2475 13.4 22.2775C13.4 23.2825 13.5675 24.12 13.735 25.125H6.86751C3.85251 25.125 1.50751 27.6375 1.50751 30.4851V67C1.50751 70.015 4.02001 72.36 6.86751 72.36H56.615C59.63 72.36 61.975 69.8475 61.975 67V57.955C64.4875 57.62 66.4975 55.61 66.4975 52.93V44.7225C66.4975 41.875 64.4875 39.6975 61.975 39.53ZM43.215 6.03005C46.7325 6.03005 49.4125 8.87755 49.4125 12.2275C49.4125 15.5775 46.565 18.425 43.215 18.425C39.6975 18.425 37.0175 15.5775 37.0175 12.2275C37.0175 8.87755 39.6975 6.03005 43.215 6.03005ZM24.455 15.745C27.9725 15.745 30.6525 18.5925 30.6525 21.9425C30.6525 22.9475 30.485 23.9525 29.9825 24.79H18.76C18.2575 23.9525 18.09 22.9475 18.09 21.9425C18.09 18.5925 20.9375 15.745 24.455 15.745ZM57.4525 66.8326C57.4525 67.3351 57.1175 67.6701 56.615 67.6701H6.86751C6.36501 67.6701 6.03001 67.3351 6.03001 66.8326V30.3175C6.03001 29.815 6.36501 29.48 6.86751 29.48C7.87251 29.48 55.4425 29.48 56.615 29.48C57.1175 29.48 57.4525 29.815 57.4525 30.3175V39.3625C56.1125 39.3625 42.7125 39.3625 41.3725 39.3625C38.6925 39.3625 36.515 41.54 36.515 44.22C36.515 46.0625 36.515 52.0925 36.515 52.7625C36.515 55.4425 38.6925 57.62 41.3725 57.62C42.88 57.62 56.1125 57.62 57.4525 57.62V66.8326ZM61.8075 52.7625C61.8075 53.0975 61.64 53.265 61.305 53.265C60.635 53.265 42.3775 53.265 41.3725 53.265C41.0375 53.265 40.87 53.0975 40.87 52.7625V44.555C40.87 44.22 41.0375 44.0525 41.3725 44.0525C42.3775 44.0525 60.635 44.0525 61.305 44.0525C61.64 44.0525 61.8075 44.22 61.8075 44.555V52.7625Z" fill="#09B324"/>
<path d="M45.56 51.5901C47.235 51.5901 48.575 50.2501 48.575 48.5751C48.575 46.9001 47.235 45.5601 45.56 45.5601C43.885 45.5601 42.545 46.9001 42.545 48.5751C42.545 50.2501 43.885 51.5901 45.56 51.5901Z" fill="#09B324"/>
<path d="M27.3025 45.56H24.2875V42.545C24.2875 40.87 22.9475 39.53 21.2725 39.53C19.5975 39.53 18.2575 40.87 18.2575 42.545V45.56H15.2425C13.5675 45.56 12.2275 46.9 12.2275 48.575C12.2275 50.25 13.5675 51.59 15.2425 51.59H18.2575V54.605C18.2575 56.28 19.5975 57.62 21.2725 57.62C22.9475 57.62 24.2875 56.28 24.2875 54.605V51.59H27.3025C28.9775 51.59 30.3175 50.25 30.3175 48.575C30.3175 46.9 28.9775 45.56 27.3025 45.56Z" fill="#09B324"/>
</svg>
